# xmcd
#
# Track frame offsets:
#  150
#  14052
#  31422
#  47460
#  63677
#  79350
#  96845
#  112660
#  128420
#  143105
#  157707
#  174662
#  190910
#  208545
#  226180
#  242502
#
# Disc length: 3458 seconds
#
# Revision: 0
# Processed by: cddbd v1.5.1PL2 Copyright (c) Steve Scherf et al.
# Submitted via: Collectorz.com_Music_Collector 6.9
#
DISCID=c80d8010
DTITLE=洪榮宏 - 戀歌心韻
DYEAR=1900
DGENRE=國語
TTITLE0=愛她愛她
TTITLE1=我需要安慰
TTITLE2=星星知我心
TTITLE3=唱首情歌給誰聽
TTITLE4=尋覓
TTITLE5=最愛的人
TTITLE6=一路順風
TTITLE7=苦酒滿杯
TTITLE8=昨夜夢醒時
TTITLE9=不如歸去
TTITLE10=幾時再回頭
TTITLE11=愛的歸宿
TTITLE12=善變的心
TTITLE13=伊人在水一方
TTITLE14=別再讓我醉
TTITLE15=再來一杯
EXTD=
EXTT0=
EXTT1=
EXTT2=
EXTT3=
EXTT4=
EXTT5=
EXTT6=
EXTT7=
EXTT8=
EXTT9=
EXTT10=
EXTT11=
EXTT12=
EXTT13=
EXTT14=
EXTT15=
PLAYORDER=
